<?xml version="1.0" encoding="utf-8"?>
<!-- Generator: Adobe Illustrator 23.1.0, SVG Export Plug-In . SVG Version: 6.00 Build 0)  -->
<svg version="1.2" baseProfile="tiny" id="Layer_1" xmlns="http://www.w3.org/2000/svg" xmlns:xlink="http://www.w3.org/1999/xlink"
	 x="0px" y="0px" viewBox="0 0 1080 1080" xml:space="preserve">
<path fill="#394753" d="M399.06,231.6c114.95,0,229.89,0.41,344.83-0.26c31.56-0.18,63.14-0.36,94.7-0.76
	c2.69-0.03,5.36,0.35,8.04,0.59c12.83,1.12,16.17,11.38,18.75,22.19c27.15,113.69,18.53,234.78-29.71,341.73
	c-12.85,28.5-28.56,55.36-45.93,81.25c-13.64,20.34-28.51,39.78-44.77,58.17c-12.13,13.72-24.89,26.83-38.41,39.07
	c-25.46,23.04-52.49,44.06-84,58.5c-16.71,7.66-34.23,12.46-52.46,15.02c-18.18,2.56-36.43,2.53-54.68,2.13
	c-100.78-2.19-201.57-0.48-302.35-0.94c-52.17-0.23-104.34-0.06-156.52,0.01c-5.45,0.01-10.83-0.44-15.97-2.11
	c-10.69-3.48-17.17-12.84-17.78-25.28c-0.17-3.53-0.12-7.07-0.12-10.6c0-180.84-0.01-361.67,0.01-542.51c0-5.18,0.1-10.3,1.12-15.48
	c2.44-12.4,12.3-19.79,24.8-20.55c4.35-0.26,8.73-0.14,13.09-0.14C174.16,231.62,286.61,231.62,399.06,231.6z"/>
<linearGradient id="SVGID_1_" gradientUnits="userSpaceOnUse" x1="568.2418" y1="633.8661" x2="1069.486" y2="479.994">
	<stop  offset="0.329" style="stop-color:#95873F"/>
	<stop  offset="0.5606" style="stop-color:#F2E5A0"/>
	<stop  offset="0.6012" style="stop-color:#E9DC97"/>
	<stop  offset="0.6639" style="stop-color:#D7C983"/>
	<stop  offset="0.7405" style="stop-color:#BDAE67"/>
	<stop  offset="0.7875" style="stop-color:#AC9E53"/>
</linearGradient>
<path fill="url(#SVGID_1_)" d="M861.96,722.14c6.26-1.7,11.35-5.28,16.14-9.11c20.4-16.3,35.57-36.91,48.51-59.37
	c46.65-81.01,74.12-171.92,79.51-265.69c0.55-9.54,0.61-19.07,0.9-28.6c0.04-1.42-0.32-2.93,0.92-4.46c3.7,1.08,7.05,2.9,10.06,5.56
	c36.1,31.99,42.22,92.76,38.31,137.67c-9.26,106.31-67.97,219.79-162.21,274.67c-2.17,1.26-4.37,2.49-6.58,3.68
	c-14.55,7.77-29.68,13.87-45.24,19.09c-2.94,0.98-5.87,1.98-8.77,2.97c12.84-0.71,30.58-2.95,50.69-9.56
	c53.76-17.66,96.58-57.54,126.31-104.74c7.31-11.61,13.87-23.62,20.27-35.74c0.38-0.73,0.77-1.49,1.77-1.7
	c1.18,0.02,1.68,0.97,2.08,1.9c14.93,34.5,11.09,69.88-9.97,101.05c-41.44,61.35-128.99,97.96-201.4,98.25
	c-66.73,0.27-133.47,0.19-200.2,0.17c-2.1,0-5.29,1.1-5.87-1.86c-0.62-3.16,2.78-2.77,4.74-3.67
	c101.25-46.55,177.86-127.77,227.8-226.95c43.39-86.18,65.2-183.73,56.69-280.21c-2.73-30.91-8.46-61.55-17.28-91.3
	c-0.53-1.79-1.27-3.54-1.61-5.37c-1.21-6.41,0.69-8.02,7.25-7.38c16.39,1.6,30.85,7.67,43.74,17.82
	c24.38,19.19,33.75,53.99,39.37,83.24c10.53,54.78-0.23,115.47-13.03,169.06c-16.65,69.76-44.78,137.92-85.32,197.24
	c-4.32,6.32-9.32,12.18-13.97,18.28C864.28,718.72,863.15,720.45,861.96,722.14z"/>
<g>
	<linearGradient id="SVGID_2_" gradientUnits="userSpaceOnUse" x1="257.3149" y1="549.2239" x2="165.0082" y2="479.3702">
		<stop  offset="0.329" style="stop-color:#95873F"/>
		<stop  offset="0.5606" style="stop-color:#F2E5A0"/>
		<stop  offset="0.6012" style="stop-color:#E9DC97"/>
		<stop  offset="0.6639" style="stop-color:#D7C983"/>
		<stop  offset="0.7405" style="stop-color:#BDAE67"/>
		<stop  offset="0.7875" style="stop-color:#AC9E53"/>
	</linearGradient>
	<path fill="url(#SVGID_2_)" d="M284.91,492.09c-0.1-8.6-2.78-17.27-10.37-22.09c-7.4-4.7-17.23-4.6-23.04,2.55
		c-0.47,0.58-1.48,1.57-1.18,2.42c0.3,0.84,2.13,0.65,2.89,1.03c1.32,0.66,1.85,1.98,1.81,3.39c-0.05,1.64-0.07,17.33-0.13,38.95
		c-19.03-0.11-38.06-0.22-57.1-0.34c-0.37-4.73-0.49-10.03-0.16-15.8c0.31-5.32,0.99-10.61,2.03-15.84
		c0.46-2.29,0.98-4.56,1.57-6.82c0.65-2.48,2.44-5.52,2.25-8.12c-0.03-0.35-0.11-0.71-0.33-0.98c-0.51-0.63-1.49-0.53-2.28-0.33
		c-4.85,1.24-9.56,3.83-13.27,7.18c-1.14,1.03-4.2,3.93-6.96,8.89c-7.33,13.12-7.9,31.7-7.9,31.7
		c-0.37,12.02-0.85,36.36,11.95,61.64c0,0,8.97,17.72,21.8,22.09c2.53,0.86,3.22,0.29,3.44,0.01c1-1.28-1.15-3.49-1.78-4.47
		c-1.17-1.81-2.17-3.72-3.03-5.7c-1.78-4.08-2.96-8.4-3.84-12.75c-2.68-13.25-4.41-26.66-4.04-40.19h57.64c0,16.95,0,33.91,0,50.86
		c0,3.37,1.38,6.61,4.49,8.19c1.87,0.95,3.99,1.29,6.08,1.55c3.65,0.45,7.38,0.71,10.99,0.01c2.11-0.41,4.23-1.17,5.8-2.64
		c2.54-2.36,2.58-5.56,2.58-8.77c0-25.55,0.24-51.09,0.21-76.64C285.02,504.77,284.98,498.43,284.91,492.09z"/>
	<linearGradient id="SVGID_3_" gradientUnits="userSpaceOnUse" x1="222.8351" y1="594.7866" x2="130.5284" y2="524.9328">
		<stop  offset="0.329" style="stop-color:#95873F"/>
		<stop  offset="0.5606" style="stop-color:#F2E5A0"/>
		<stop  offset="0.6012" style="stop-color:#E9DC97"/>
		<stop  offset="0.6639" style="stop-color:#D7C983"/>
		<stop  offset="0.7405" style="stop-color:#BDAE67"/>
		<stop  offset="0.7875" style="stop-color:#AC9E53"/>
	</linearGradient>
	<path fill="url(#SVGID_3_)" d="M205.94,608.02c-23.26-6.8-32.34-31.44-37.3-52.81c-1.08-4.66-2.11-9.25-2.73-14
		c-1.86-14.37-1.78-30.17,2.88-44.03c-3.55,0.8-5.16,3.85-7.23,6.33c-7.58,9.05-8.17,19.62-8.54,30.13
		c-0.86,24.67,8.14,42.21,10.16,45.99c4.53,8.47,9.45,14.05,10.9,15.65c5.18,5.72,10.37,9.7,14.36,12.33
		c-3.16-0.78-7.64-2.25-12.42-5.2c-4.43-2.73-7.59-5.77-9.67-8.11c-3-3.84-5.11-7.21-6.5-9.62c-3.7-6.41-8.31-14.4-10.65-25.1
		c-0.66-3.01-1.11-6.06-2.29-6.18c-1.71-0.17-3.64,5.91-4.05,7.22c-1.35,4.25-1.69,8.16-1.66,10.24c0.1,8.08,6.15,23.8,20.63,34.46
		c0,0,12.66,9.32,34.32,10.04c0.88,0.03,6.13-0.09,10.02-2.88C208.07,611.11,209.33,609.01,205.94,608.02z"/>
	<linearGradient id="SVGID_4_" gradientUnits="userSpaceOnUse" x1="250.1499" y1="558.692" x2="157.8432" y2="488.8383">
		<stop  offset="0.329" style="stop-color:#95873F"/>
		<stop  offset="0.5606" style="stop-color:#F2E5A0"/>
		<stop  offset="0.6012" style="stop-color:#E9DC97"/>
		<stop  offset="0.6639" style="stop-color:#D7C983"/>
		<stop  offset="0.7405" style="stop-color:#BDAE67"/>
		<stop  offset="0.7875" style="stop-color:#AC9E53"/>
	</linearGradient>
	<path fill="url(#SVGID_4_)" d="M168.81,497.09c-0.01,0.03-0.02,0.06-0.03,0.08c0.03-0.01,0.05-0.02,0.08-0.03L168.81,497.09z"/>
	<linearGradient id="SVGID_5_" gradientUnits="userSpaceOnUse" x1="250.3069" y1="558.4844" x2="158.0002" y2="488.6307">
		<stop  offset="0.329" style="stop-color:#95873F"/>
		<stop  offset="0.5606" style="stop-color:#F2E5A0"/>
		<stop  offset="0.6012" style="stop-color:#E9DC97"/>
		<stop  offset="0.6639" style="stop-color:#D7C983"/>
		<stop  offset="0.7405" style="stop-color:#BDAE67"/>
		<stop  offset="0.7875" style="stop-color:#AC9E53"/>
	</linearGradient>
	<polygon fill="url(#SVGID_5_)" points="168.81,497.09 168.87,497.14 169.14,496.77 	"/>
</g>
<linearGradient id="SVGID_6_" gradientUnits="userSpaceOnUse" x1="599.2778" y1="577.7195" x2="455.8282" y2="501.6289">
	<stop  offset="0.329" style="stop-color:#95873F"/>
	<stop  offset="0.5606" style="stop-color:#F2E5A0"/>
	<stop  offset="0.6012" style="stop-color:#E9DC97"/>
	<stop  offset="0.6639" style="stop-color:#D7C983"/>
	<stop  offset="0.7405" style="stop-color:#BDAE67"/>
	<stop  offset="0.7875" style="stop-color:#AC9E53"/>
</linearGradient>
<path fill="url(#SVGID_6_)" d="M582.54,489.09c0.1-2.96-0.01-7.35-1.06-12.64c-0.11-0.56-0.24-1.91-0.93-3.47
	c-0.37-0.85-1.39-3.09-3.77-4.63c-1.29-0.81-2.7-1.3-4.21-1.28c-1.05,0.01-2.1,0.07-3.14,0.07c-1.45,0.01-2.9,0.04-4.36,0.05
	c-2.82,0.02-5.65-0.04-8.48,0.06c-2.54,0.1-4.9,0.96-6.7,2.86c-2.14,2.25-3.85,5.45-6.68,12.32c-0.48,1.14-0.85,2.1-1.11,2.76
	c-1.07,2.33-16.29,35.29-22.02,44.83c-0.42,0.71-1.36,2.23-2.52,2.18c-1.17,0.05-2.11-1.47-2.52-2.18
	c-5.74-9.54-20.95-42.5-22.02-44.83c-0.26-0.66-0.63-1.62-1.11-2.76c-2.83-6.87-4.54-10.08-6.68-12.32c-1.8-1.9-4.17-2.76-6.7-2.86
	c-2.82-0.1-5.65-0.04-8.48-0.06c-1.45-0.01-2.9-0.04-4.36-0.05c-1.05,0-2.1-0.06-3.14-0.07c-1.51-0.01-2.93,0.47-4.21,1.28
	c-2.38,1.53-3.4,3.78-3.77,4.63c-0.69,1.56-0.82,2.91-0.93,3.47c-1.05,5.29-1.15,9.68-1.06,12.64
	c-1.11,33.92-2.21,67.82-3.32,101.74c0.04,0.56,0.14,1.35,0.45,2.22c1.74,4.96,8.04,7.41,12.89,7.47c4.9,0.06,10.76-2.26,12.83-6.76
	c0.02-0.05,0.4-0.92,0.61-1.9c1.44-6.91,2.27-62.53,2.58-86.77c13.27,27.21,23.67,47.54,28.46,56.51c0.98,1.85,3.06,5.55,6.89,6.81
	c1.11,0.37,2.33,0.57,3.58,0.59c1.25-0.01,2.48-0.21,3.58-0.59c3.83-1.26,5.92-4.96,6.89-6.81c4.8-8.97,15.19-29.3,28.46-56.51
	c0.31,24.24,1.14,79.86,2.58,86.77c0.2,0.97,0.58,1.85,0.61,1.9c2.07,4.5,7.93,6.82,12.83,6.76c4.86-0.06,11.16-2.51,12.89-7.47
	c0.31-0.87,0.42-1.66,0.45-2.22C584.75,556.91,583.65,523.01,582.54,489.09z"/>
<path fill="#FFFFFF" d="M346.03,569.39c0.3,0.04,0.59,0.1,0.86,0.17c0,0.02-0.01,0.04-0.02,0.06
	C346.64,570,345.85,569.79,346.03,569.39z"/>
<linearGradient id="SVGID_7_" gradientUnits="userSpaceOnUse" x1="438.5584" y1="570.6709" x2="295.1088" y2="480.8589">
	<stop  offset="0.329" style="stop-color:#95873F"/>
	<stop  offset="0.5606" style="stop-color:#F2E5A0"/>
	<stop  offset="0.6012" style="stop-color:#E9DC97"/>
	<stop  offset="0.6639" style="stop-color:#D7C983"/>
	<stop  offset="0.7405" style="stop-color:#BDAE67"/>
	<stop  offset="0.7875" style="stop-color:#AC9E53"/>
</linearGradient>
<path fill="url(#SVGID_7_)" d="M422.78,471.12c-2.76-3.49-7.48-3.62-12.01-3.74c-4.3-0.12-9.76-0.27-13.19,3.53
	c-1.9,2.11-2.42,4.61-2.58,6.11c-0.08,25.03-0.16,50.06-0.24,75.08c0.05,2.45-0.2,7.07-2.67,12.15c-2.61,5.36-6.31,8.4-7.26,9.15
	c0,0-6.3,4.98-14.54,5.65c-0.83,0.07-1.69,0.1-1.69,0.1c-0.22,0.01-0.43,0.01-0.65,0.02c-0.22,0-0.43-0.01-0.65-0.02
	c0,0-0.87-0.03-1.69-0.1c-8.24-0.67-14.54-5.65-14.54-5.65c-0.95-0.75-4.65-3.78-7.26-9.15c-2.47-5.08-2.72-9.7-2.67-12.15
	c-0.08-25.03-0.16-50.06-0.24-75.08c-0.16-1.51-0.68-4-2.58-6.11c-3.42-3.8-8.89-3.65-13.19-3.53c-4.53,0.12-9.25,0.25-12.01,3.74
	c-2.17,2.74-2,6.12-1.82,7.59c0,26.2,0,52.39,0,78.59c0,7.31,2.1,17,9.11,26.2c7.88,10.33,19.06,14.93,22.51,16.22
	c6.99,2.6,13.87,3.32,15.97,3.53c3.65,0.37,6.76,0.38,9.06,0.31c2.3,0.07,5.41,0.05,9.06-0.31c2.11-0.21,8.99-0.94,15.97-3.53
	c3.45-1.28,14.64-5.88,22.51-16.22c7.01-9.19,9.11-18.88,9.11-26.2c0-26.2,0-52.39,0-78.59
	C424.77,477.24,424.94,473.86,422.78,471.12z"/>
<path fill="#FFFFFF" d="M352.45,601.82c0.24,0.03,0.47,0.1,0.68,0.2c0,0-0.4,0.24-0.4,0.24L352.45,601.82z"/>
<linearGradient id="SVGID_8_" gradientUnits="userSpaceOnUse" x1="772.0693" y1="592.6281" x2="593.6929" y2="489.0949">
	<stop  offset="0.329" style="stop-color:#95873F"/>
	<stop  offset="0.5606" style="stop-color:#F2E5A0"/>
	<stop  offset="0.6012" style="stop-color:#E9DC97"/>
	<stop  offset="0.6639" style="stop-color:#D7C983"/>
	<stop  offset="0.7405" style="stop-color:#BDAE67"/>
	<stop  offset="0.7875" style="stop-color:#AC9E53"/>
</linearGradient>
<path fill="url(#SVGID_8_)" d="M734.61,508.94c-3.79-12.62-11.55-23.74-22.09-31.66c-11.95-8.97-26.76-13.67-41.64-14.02
	c-14.88,0.35-29.69,5.05-41.64,14.02c-10.54,7.92-18.3,19.04-22.09,31.66c-10.84,36.22,5.46,82.44,44.49,92.66
	c6.3,1.65,12.77,2.35,19.23,2.17c6.46,0.17,12.94-0.52,19.23-2.17C729.15,591.38,745.45,545.16,734.61,508.94z M705.63,549.38
	c-4.08,17.15-15.47,35.59-34.75,35.79c-19.28-0.2-30.67-18.64-34.75-35.79c-3.93-16.53-3.21-35.99,6.05-50.73
	c6.41-10.22,17.31-16.27,28.7-16.35c11.39,0.09,22.29,6.14,28.7,16.35C708.84,513.39,709.56,532.85,705.63,549.38z"/>
</svg>
