<?xml version="1.0" encoding="utf-8"?>
<!-- Generator: Adobe Illustrator 23.1.0, SVG Export Plug-In . SVG Version: 6.00 Build 0)  -->
<svg version="1.2" baseProfile="tiny" id="Слой_1"
	 xmlns="http://www.w3.org/2000/svg" xmlns:xlink="http://www.w3.org/1999/xlink" x="0px" y="0px" viewBox="0 0 512 512"
	 xml:space="preserve">
<path fill="#093475" d="M125.38,120.83l-0.88,0.19c-5.22,1.01-11.91,4.43-17.47,9.71c-6.13,5.81-8.74,9.3-9.71,16.47v344.42h97.41
	V48.65C127.2,87.17,125.38,120.83,125.38,120.83z M185.58,367.81c0,1.02-0.83,1.85-1.85,1.85h-4.32v95.73
	c0,1.02-0.83,1.85-1.85,1.85h-17.93c-0.77,0-1.46-0.47-1.73-1.19l-8.25-21.57c-3.85-9.9-7.3-19.25-10.33-28.05
	c-2.97-8.62-5.81-17.69-8.5-27.21c-0.1-0.35-0.42-0.6-0.79-0.6c-0.48,0-0.85,0.41-0.82,0.88c0.96,12.81,1.44,25.34,1.44,37.6v22.2
	h4.32c1.02,0,1.85,0.83,1.85,1.85v13.28c0,1.02-0.83,1.85-1.85,1.85h-26.62c-1.02,0-1.85-0.83-1.85-1.85v-13.28
	c0-1.02,0.83-1.85,1.85-1.85h5.27v-79.65h-5.27c-1.02,0-1.85-0.83-1.85-1.85v-13.28c0-1.02,0.83-1.85,1.85-1.85h29.62
	c0.74,0,1.41,0.44,1.71,1.12c8.25,19.23,15.6,41.04,22.04,65.45c0.21,0.81,0.95,1.38,1.79,1.38c-0.74-16.7-1.11-26.29-1.11-28.76
	v-22.2h-4.8c-1.02,0-1.85-0.83-1.85-1.85v-13.28c0-1.02,0.83-1.85,1.85-1.85h26.14c1.02,0,1.85,0.83,1.85,1.85V367.81z"/>
<g>
	<path fill="#093475" d="M256.17,20.39c-0.17,0-35.05,14.28-48.53,21.25v449.97h97.06V41.83C291.22,34.88,256.34,20.39,256.17,20.39
		z M281.93,458.04c-6.48,5.88-15.58,8.82-27.29,8.82h-32.5c-1.02,0-1.84-0.82-1.84-1.84v-13.31c0-1.02,0.82-1.84,1.84-1.84h5.61
		v-79.65h-5.61c-1.02,0-1.84-0.82-1.84-1.84v-13.31c0-1.02,0.82-1.84,1.84-1.84h34.16c10.41,0,18.59,2.54,24.54,7.62
		c5.95,5.08,8.93,12.46,8.93,22.15c0,12-4.8,19.87-14.39,23.61c10.84,5.22,16.27,14.18,16.27,26.88
		C291.66,443.98,288.41,452.17,281.93,458.04z"/>
	<path fill="#093475" d="M260.28,417.59c-1.78-0.71-4.39-1.07-7.81-1.07l0,33.34c3.47,0,6.12-0.33,7.95-0.99
		c1.83-0.66,3.23-2.16,4.19-4.5c0.96-2.34,1.45-6.02,1.45-11.02c0-4.95-0.52-8.64-1.55-11.06
		C263.47,419.87,262.06,418.3,260.28,417.59z"/>
	<path fill="#093475" d="M262.85,397.37c1.47-2.4,2.21-6.25,2.21-11.58c0-4.63-0.46-8.14-1.37-10.51c-0.92-2.37-2.22-3.94-3.9-4.7
		c-1.69-0.76-4.12-1.15-7.3-1.15v31.53C257.92,400.96,261.38,399.76,262.85,397.37z"/>
</g>
<path fill="#093475" d="M405.32,130.88c-5.88-5.56-13.04-9.08-18.35-9.87l-0.03-0.19c-0.25-2.77-4.74-35.26-69.66-72.18v442.97
	h97.41V145.3C413.49,139.49,410.85,136.13,405.32,130.88z M403.64,367.22c0,1.02-0.83,1.85-1.85,1.85H395v68.82
	c0,8.85-2.58,16-7.72,21.45c-5.15,5.45-11.94,8.18-20.37,8.18c-9.9,0-17.44-2.65-22.64-7.94s-7.8-13.08-7.8-23.35v-67.16h-6.4
	c-1.02,0-1.85-0.83-1.85-1.85v-13.28c0-1.02,0.83-1.85,1.85-1.85h34.99c1.02,0,1.85,0.83,1.85,1.85v13.28
	c0,1.02-0.83,1.85-1.85,1.85h-2.69v69.36c0,8.07,2.6,12.1,7.8,12.1c5.65,0,8.48-4.4,8.48-13.21v-68.26h-2.77
	c-1.02,0-1.85-0.83-1.85-1.85v-13.28c0-1.02,0.83-1.85,1.85-1.85h25.9c1.02,0,1.85,0.83,1.85,1.85V367.22z"/>
</svg>
