<?xml version="1.0" encoding="utf-8"?>
<!-- Generator: Adobe Illustrator 23.1.0, SVG Export Plug-In . SVG Version: 6.00 Build 0)  -->
<svg version="1.2" baseProfile="tiny" id="Слой_1"
	 xmlns="http://www.w3.org/2000/svg" xmlns:xlink="http://www.w3.org/1999/xlink" x="0px" y="0px" viewBox="0 0 512 512"
	 xml:space="preserve">
<g>
	<path fill="#1F3E79" d="M195.13,132.93c-0.03,32.99-0.06,65.97-0.07,98.96c0,4.25,0.39,8.47,0.81,12.69
		c0.55,5.45,1.5,10.83,2.92,16.12c2.2,8.2,5.51,15.91,10.68,22.71c3.58,4.71,8.06,8.4,13.23,11.3c4.49,2.52,9.29,4.13,14.3,5.09
		c3.6,0.69,7.28,0.94,10.94,0.69c5.86-0.4,11.51-1.69,16.91-4.12c4.07-1.83,7.81-4.14,11.14-7.08c3.58-3.17,6.58-6.86,8.99-11
		c2.51-4.33,4.55-8.87,6.06-13.65c1.48-4.69,2.6-9.45,3.34-14.32c0.4-2.65,0.8-5.3,1.02-7.95c0.38-4.56,0.71-9.13,0.7-13.72
		c-0.02-11.32,0.02-22.63,0-33.95c0-0.93,0.17-1.22,1.18-1.21c36,0.06,72.01,0.09,108.01,0.09c1.01,0,1.26,0.26,1.25,1.26
		c-0.06,11.35-0.04,22.7-0.12,34.06c-0.03,4.14-0.24,8.28-0.47,12.42c-0.21,3.68-0.47,7.37-0.87,11.03
		c-0.49,4.52-1.03,9.03-1.7,13.53c-0.95,6.39-2.12,12.72-3.61,19c-1.9,7.99-4.23,15.85-7.2,23.52c-2.13,5.49-4.49,10.86-7.22,16.07
		c-3.33,6.33-7.15,12.35-11.48,18.06c-3.75,4.96-7.97,9.49-12.48,13.74c-3.51,3.31-7.31,6.27-11.26,9.04
		c-6.13,4.29-12.61,7.99-19.37,11.18c-5.45,2.57-11.01,4.85-16.71,6.8c-10.8,3.71-21.85,6.38-33.13,8.16
		c-3.18,0.5-6.36,0.96-9.56,1.32c-3.29,0.36-6.57,0.69-9.88,0.89c-2.85,0.18-5.69,0.39-8.54,0.43c-3.74,0.06-7.48,0.06-11.21,0.11
		c-2.45,0.03-4.9-0.11-7.34-0.21c-2.68-0.11-5.38-0.2-8.05-0.57c-1.94-0.27-3.92-0.28-5.87-0.49c-2.04-0.23-4.06-0.61-6.1-0.85
		c-2.91-0.33-5.78-0.85-8.66-1.38c-2.72-0.5-5.46-0.95-8.15-1.56c-2.89-0.65-5.74-1.46-8.61-2.19c-5.77-1.48-11.42-3.33-16.98-5.44
		c-5.78-2.19-11.42-4.69-16.89-7.59c-6.37-3.38-12.45-7.19-18.18-11.57c-4.6-3.51-8.86-7.38-12.81-11.57
		c-3.47-3.69-6.65-7.66-9.56-11.82c-6.11-8.72-11.07-18.06-15.03-27.94c-2.42-6.05-4.45-12.21-6.24-18.47
		c-1.72-6.04-3.07-12.16-4.25-18.31c-0.66-3.43-1.23-6.87-1.63-10.35c-0.31-2.65-0.77-5.29-1.08-7.94c-0.21-1.8-0.22-3.62-0.45-5.42
		c-0.31-2.42-0.29-4.86-0.64-7.28c-0.19-1.29-0.13-2.62-0.21-3.94c-0.21-3.55-0.02-7.13-0.33-10.67c-0.22-2.58,0.02-5.12,0.02-7.67
		c0.02-62.8,0.08-125.61,0.09-188.41c0-2.59,0.58-4.86,2.37-6.71c1.43-1.48,3.25-2.24,5.33-2.33c0.26-0.01,0.52-0.01,0.77-0.01
		c31.18,0.02,62.35,0.05,93.53,0.07c3.99,0,7.03,2.26,8.11,6.04c0.26,0.91,0.34,1.86,0.34,2.82c-0.04,33.5-0.06,67.01-0.09,100.51
		C195.11,132.93,195.12,132.93,195.13,132.93z"/>
	<path fill="#1F3E79" d="M296.17,101.05c0.02-22.67,0.06-45.34,0.02-68c-0.01-2.65,0.61-4.97,2.38-6.88
		c1.47-1.58,3.41-2.45,5.58-2.48c5.08-0.06,10.17-0.01,15.26-0.04c0.6,0,0.75,0.19,0.73,0.76c-0.12,2.86,0.16,5.72,0.46,8.55
		c0.56,5.21,1.58,10.35,3.09,15.39c1.6,5.35,3.68,10.51,6.29,15.45c2.95,5.59,6.43,10.81,10.51,15.64c2.95,3.49,6.14,6.74,9.57,9.74
		c4.27,3.72,8.89,6.96,13.81,9.76c5.32,3.03,10.89,5.49,16.74,7.31c4.55,1.42,9.18,2.46,13.91,3.12c3.67,0.51,7.35,0.74,11.04,0.81
		c0.82,0.01,1.03,0.22,1.03,1.04c-0.04,19.94-0.06,39.88-0.04,59.82c0,0.96-0.3,1.12-1.18,1.12c-23.22-0.04-46.43-0.06-69.65-0.07
		c-12.82-0.01-25.65-0.03-38.47-0.01c-0.92,0-1.15-0.22-1.15-1.14C296.14,147.63,296.15,124.34,296.17,101.05z"/>
	<path fill="#EE7F1A" d="M406.6,59.58c-0.01,9.28-0.03,18.57,0,27.85c0,0.97-0.23,1.21-1.22,1.21c-6.16-0.02-12.14-1.05-18.02-2.84
		c-6.5-1.98-12.49-4.97-18.05-8.83c-2.19-1.52-4.23-3.26-6.24-5.03c-6.77-5.96-11.83-13.17-15.63-21.27
		c-2.27-4.84-3.82-9.94-4.74-15.22c-0.5-2.86-0.86-5.73-0.94-8.64c-0.02-0.79-0.21-1.58-0.21-2.39c0-0.6,0.21-0.8,0.77-0.73
		c0.07,0.01,0.15,0,0.22,0c18.53,0.01,37.06,0.02,55.59,0.05c4.73,0.01,8.46,3.78,8.48,8.54C406.63,41.38,406.6,50.48,406.6,59.58z"
		/>
	<path fill="#1F3E79" d="M351.81,488.5c-3.34,0-6.53-0.02-9.72,0.01c-0.43,0-0.49-0.3-0.6-0.5c-3.34-5.97-6.66-11.94-9.98-17.92
		c-1.05-1.89-2.09-3.78-3.12-5.68c-0.27-0.5-0.63-0.72-1.22-0.71c-1.55,0.04-3.1,0.05-4.64-0.01c-0.73-0.02-0.94,0.2-0.94,0.93
		c0.03,4.16-0.01,8.33,0.02,12.49c0.01,0.84-0.17,1.14-1.07,1.11c-2.28-0.07-4.57-0.05-6.85-0.01c-0.63,0.01-0.8-0.18-0.8-0.8
		c0.03-13.08,0.04-26.16,0.03-39.24c0-0.77,0.28-0.89,0.95-0.89c5.93,0.03,11.86-0.02,17.79,0.04c3.22,0.03,6.32,0.65,9.03,2.59
		c2.53,1.8,4.1,4.26,4.71,7.23c0.63,3.09,0.56,6.19-0.81,9.14c-1.45,3.11-3.87,5.1-7.08,6.17c-0.56,0.19-0.72,0.16-0.36,0.78
		c3.37,5.74,6.7,11.5,10.03,17.26C348.7,483.1,350.21,485.73,351.81,488.5z M321.61,450.43c0,1.58,0.01,3.17-0.01,4.75
		c-0.01,0.57,0.07,0.87,0.76,0.86c2.95-0.04,5.89,0.02,8.84-0.04c1.42-0.03,2.76-0.45,3.88-1.39c1.66-1.39,2.27-3.75,1.55-5.94
		c-0.72-2.17-2.76-3.61-5.38-3.66c-2.94-0.06-5.89-0.01-8.84-0.04c-0.64-0.01-0.81,0.2-0.8,0.82
		C321.64,447.34,321.61,448.89,321.61,450.43z"/>
	<path fill="#1F3E79" d="M368.43,457.75c0.01-6.45,0.03-12.9,0-19.34c0-0.86,0.2-1.11,1.08-1.1c4.83,0.05,9.65-0.02,14.48,0.05
		c5.27,0.08,10.29,1.07,14.64,4.35c3.37,2.54,5.64,5.81,6.75,9.85c1.49,5.45,1.25,10.8-1.31,15.93c-2.46,4.93-6.53,7.93-11.65,9.62
		c-2.33,0.77-4.73,1.14-7.2,1.14c-5.27-0.02-10.54-0.03-15.8,0.01c-0.85,0.01-1.02-0.24-1.01-1.05
		C368.44,470.72,368.43,464.24,368.43,457.75z M377.15,457.79c0,3.94,0.01,7.88-0.02,11.82c-0.01,0.73,0.14,1.04,0.96,1.02
		c2.17-0.05,4.34,0.01,6.51-0.02c2.9-0.04,5.63-0.69,7.96-2.49c3.81-2.94,5.1-6.97,4.81-11.61c-0.38-6.15-4.32-10.43-10.42-11.29
		c-2.89-0.41-5.81-0.07-8.71-0.2c-0.85-0.04-1.12,0.18-1.11,1.07C377.19,449.99,377.15,453.89,377.15,457.79z"/>
	<path fill="#1F3E79" d="M295.19,478.17c-3.19,0-6.21-0.03-9.22,0.01c-0.69,0.01-0.92-0.38-1.09-0.85c-0.65-1.79-1.28-3.6-1.87-5.42
		c-0.16-0.51-0.38-0.67-0.91-0.67c-5.38,0.02-10.75,0.03-16.13-0.02c-0.96-0.01-1.01,0.65-1.23,1.22c-0.66,1.68-1.34,3.35-1.9,5.06
		c-0.18,0.54-0.41,0.65-0.9,0.65c-2.8-0.02-5.6-0.04-8.4,0c-0.86,0.01-0.76-0.31-0.53-0.9c1.45-3.69,2.89-7.39,4.32-11.09
		c2.41-6.26,4.8-12.53,7.22-18.79c1.22-3.16,2.52-6.29,3.74-9.46c0.21-0.55,0.51-0.68,1.05-0.68c3.06,0.02,6.11,0.04,9.17,0
		c0.76-0.01,1.07,0.29,1.33,0.97c1.73,4.63,3.49,9.26,5.27,13.87c1.85,4.78,3.73,9.55,5.58,14.34
		C292.17,470.29,293.65,474.17,295.19,478.17z M274.03,446c-0.41,1.13-0.7,1.92-0.99,2.71c-1.69,4.66-3.39,9.32-5.08,13.98
		c-0.13,0.36-0.54,0.87,0.34,0.87c3.97,0,7.94,0,12.09,0.01C278.28,457.74,276.21,452.03,274.03,446z"/>
	<path fill="#1F3E79" d="M84.45,451.27c0-4.28,0.06-8.55-0.02-12.82c-0.02-1.17,0.34-1.4,1.42-1.36c2.1,0.09,4.2,0.07,6.3,0.01
		c0.9-0.03,1.17,0.21,1.17,1.15c-0.04,7.59-0.03,15.18-0.04,22.78c0,2.02,0.16,3.99,1.21,5.79c1.42,2.43,3.61,3.63,6.32,4.13
		c2.42,0.45,4.7,0.12,6.89-0.91c2.59-1.21,3.9-3.39,4.49-6.12c0.32-1.45,0.27-2.91,0.28-4.37c0.01-7.08,0.04-14.15-0.01-21.23
		c-0.01-1.01,0.29-1.23,1.24-1.2c2.21,0.07,4.42,0.05,6.63,0.01c0.77-0.01,1.12,0.15,1.11,1.03c-0.04,7.7,0.02,15.41-0.06,23.11
		c-0.03,3.38-0.49,6.72-2.28,9.73c-2.22,3.75-5.54,5.93-9.68,7.04c-3.43,0.92-6.91,0.92-10.37,0.57c-3.7-0.37-7.13-1.69-9.88-4.3
		c-2.39-2.27-3.79-5.14-4.41-8.38c-0.29-1.56-0.29-3.13-0.3-4.7C84.43,457.9,84.44,454.58,84.45,451.27z"/>
	<path fill="#1F3E79" d="M163.32,444.87c-6.24,0-12.24-0.03-18.25,0.01c-0.88,0.01-1.1-0.24-1.07-1.1c0.07-1.91,0.05-3.83,0.01-5.75
		c-0.01-0.63,0.1-0.9,0.83-0.89c9.69,0.03,19.38,0.04,29.06,0.03c0.67,0,0.9,0.16,0.88,0.85c-0.05,1.84-0.05,3.68-0.01,5.53
		c0.02,1.1-0.84,1.65-1.37,2.39c-4.19,5.74-8.4,11.47-12.61,17.19c-1.65,2.25-3.32,4.49-4.98,6.73c-0.1,0.14-0.15,0.31-0.28,0.58
		c0.47,0,0.83,0,1.18,0c5.82,0,11.64,0.03,17.46-0.01c0.85-0.01,1.04,0.24,1.02,1.05c-0.06,1.95-0.04,3.9-0.01,5.86
		c0.01,0.57-0.14,0.76-0.73,0.76c-9.91-0.03-19.82-0.03-29.73-0.02c-0.59,0-0.75-0.18-0.74-0.76c0.03-1.95,0.01-3.91,0.02-5.86
		c0-1.14,0.95-1.75,1.52-2.54c3.82-5.28,7.71-10.52,11.59-15.76C159.12,450.44,161.16,447.75,163.32,444.87z"/>
	<path fill="#1F3E79" d="M235.03,468.86c-2.53,4.36-6.04,7.5-10.81,9.1c-1.65,0.55-3.38,0.8-5.15,0.89
		c-4.99,0.24-9.68-0.77-13.83-3.58c-4.54-3.07-7.52-7.3-8.59-12.74c-1.19-6.04-0.42-11.78,3.1-16.95c3.4-4.99,8.24-7.76,14.19-8.65
		c3.83-0.58,7.6-0.44,11.26,0.91c4.11,1.52,7.19,4.31,9.47,8.02c0.35,0.56,0.27,0.83-0.35,1.11c-2.02,0.93-4.03,1.88-6,2.89
		c-0.6,0.31-0.81,0.29-1.2-0.32c-1.76-2.73-4.24-4.69-7.48-5.05c-7.18-0.81-12.41,2.86-14.14,9.75c-1.1,4.37-0.3,8.53,2.42,12.16
		c1.9,2.54,4.56,3.98,7.68,4.6c3.18,0.64,6.01-0.2,8.6-2c1.23-0.85,2.31-1.9,3-3.25c0.24-0.46,0.48-0.48,0.9-0.28
		C230.39,466.61,232.69,467.73,235.03,468.86z"/>
	<path fill="#1F3E79" d="M423.19,426.27c1.21,0,2.43,0.03,3.64-0.01c0.59-0.02,0.74,0.19,0.73,0.75c-0.03,2.43,0.08,4.86-0.06,7.28
		c-0.17,3.05-1.79,5.23-4.55,6.51c-2.69,1.25-5.4,1.02-7.63-0.79c-4.76-3.87-3.85-10.15,1.17-13c0.97-0.55,2.13-0.72,3.26-0.75
		C420.91,426.25,422.05,426.27,423.19,426.27z"/>
</g>
</svg>
